<?xml version="1.0" encoding="UTF-8"?>
<!DOCTYPE svg PUBLIC "-//W3C//DTD SVG 1.1//EN" "http://www.w3.org/Graphics/SVG/1.1/DTD/svg11.dtd">
<svg xmlns="http://www.w3.org/2000/svg" version="1.1" width="1080px" height="1080px" style="shape-rendering:geometricPrecision; text-rendering:geometricPrecision; image-rendering:optimizeQuality; fill-rule:evenodd; clip-rule:evenodd" xmlns:xlink="http://www.w3.org/1999/xlink">
<g><path style="opacity:0.981" fill="#7d53e8" d="M 136.5,418.5 C 180.245,417.764 207.745,438.431 219,480.5C 220.543,487.422 221.543,494.422 222,501.5C 222.912,530.19 222.579,558.857 221,587.5C 214.492,634.013 187.825,658.013 141,659.5C 99.8573,659.009 73.8573,639.009 63,599.5C 61.5664,592.898 60.5664,586.232 60,579.5C 59.3333,552.833 59.3333,526.167 60,499.5C 61.1553,473.362 71.3219,451.528 90.5,434C 104.479,424.507 119.812,419.341 136.5,418.5 Z M 134.5,444.5 C 159.242,443.43 176.742,454.096 187,476.5C 189.939,484.257 191.939,492.257 193,500.5C 193.667,526.5 193.667,552.5 193,578.5C 187.847,622.673 163.681,639.839 120.5,630C 107.515,624.349 98.6814,614.849 94,601.5C 91.5701,594.684 89.9034,587.684 89,580.5C 88.3333,553.5 88.3333,526.5 89,499.5C 90.3824,480.653 98.2157,465.153 112.5,453C 119.435,448.86 126.768,446.026 134.5,444.5 Z"/></g>
<g><path style="opacity:0.966" fill="#7d53e8" d="M 159.5,477.5 C 163.198,478.182 166.531,479.682 169.5,482C 163.5,494.667 157.5,507.333 151.5,520C 162.866,528.298 165.366,538.798 159,551.5C 154.843,556.995 149.343,559.995 142.5,560.5C 143.194,572.154 143.527,583.82 143.5,595.5C 140.5,595.5 137.5,595.5 134.5,595.5C 134.666,583.472 134.166,571.472 133,559.5C 119.392,551.672 116.058,540.672 123,526.5C 127.947,520.527 134.28,517.193 142,516.5C 147.845,503.478 153.679,490.478 159.5,477.5 Z"/></g>
<g><path style="opacity:0.972" fill="#7d54e7" d="M 422.5,503.5 C 428.5,503.5 434.5,503.5 440.5,503.5C 440.5,518.167 440.5,532.833 440.5,547.5C 454.167,547.5 467.833,547.5 481.5,547.5C 481.5,552.833 481.5,558.167 481.5,563.5C 467.833,563.5 454.167,563.5 440.5,563.5C 440.333,587.502 440.5,611.502 441,635.5C 441.833,636.333 442.667,637.167 443.5,638C 454.495,638.5 465.495,638.667 476.5,638.5C 476.5,643.833 476.5,649.167 476.5,654.5C 462.163,654.667 447.829,654.5 433.5,654C 426.947,651.399 423.447,646.566 423,639.5C 422.5,614.169 422.333,588.836 422.5,563.5C 411.5,563.5 400.5,563.5 389.5,563.5C 389.5,558.167 389.5,552.833 389.5,547.5C 400.5,547.5 411.5,547.5 422.5,547.5C 422.5,532.833 422.5,518.167 422.5,503.5 Z"/></g>
<g><path style="opacity:0.993" fill="#7d53e8" d="M 291.5,503.5 C 297.425,503.192 303.259,503.525 309,504.5C 309.5,518.829 309.667,533.163 309.5,547.5C 323.167,547.5 336.833,547.5 350.5,547.5C 350.5,552.833 350.5,558.167 350.5,563.5C 336.833,563.5 323.167,563.5 309.5,563.5C 309.333,587.836 309.5,612.169 310,636.5C 310.5,637 311,637.5 311.5,638C 322.828,638.5 334.162,638.667 345.5,638.5C 345.5,643.833 345.5,649.167 345.5,654.5C 331.163,654.667 316.829,654.5 302.5,654C 298.254,652.802 295.087,650.302 293,646.5C 291.526,618.897 291.026,591.231 291.5,563.5C 280.167,563.5 268.833,563.5 257.5,563.5C 257.5,558.167 257.5,552.833 257.5,547.5C 268.833,547.5 280.167,547.5 291.5,547.5C 291.5,532.833 291.5,518.167 291.5,503.5 Z"/></g>
<g><path style="opacity:0.981" fill="#7d53e8" d="M 581.5,544.5 C 610.366,543.197 625.366,557.03 626.5,586C 620.573,587.49 614.573,588.657 608.5,589.5C 607.626,569.451 597.293,560.285 577.5,562C 567.002,565.776 560.835,573.276 559,584.5C 558.5,602.497 558.333,620.497 558.5,638.5C 567.5,638.5 576.5,638.5 585.5,638.5C 585.5,643.833 585.5,649.167 585.5,654.5C 562.167,654.5 538.833,654.5 515.5,654.5C 515.5,649.167 515.5,643.833 515.5,638.5C 523.833,638.5 532.167,638.5 540.5,638.5C 540.5,613.5 540.5,588.5 540.5,563.5C 533.167,563.5 525.833,563.5 518.5,563.5C 518.5,558.167 518.5,552.833 518.5,547.5C 531.833,547.5 545.167,547.5 558.5,547.5C 558.173,552.214 558.507,556.88 559.5,561.5C 564.523,552.806 571.856,547.14 581.5,544.5 Z"/></g>
<g><path style="opacity:0.965" fill="#7d53e8" d="M 689.5,544.5 C 708.205,542.359 722.538,549.025 732.5,564.5C 733.495,558.872 733.829,553.206 733.5,547.5C 739.5,547.5 745.5,547.5 751.5,547.5C 751.333,576.835 751.5,606.169 752,635.5C 752.5,636.667 753.333,637.5 754.5,638C 757.146,638.497 759.813,638.664 762.5,638.5C 762.5,643.833 762.5,649.167 762.5,654.5C 756.491,654.666 750.491,654.499 744.5,654C 736.931,650.719 732.931,644.885 732.5,636.5C 722.318,653.587 707.318,660.42 687.5,657C 664.157,651.318 650.991,636.485 648,612.5C 644.706,591.497 649.872,572.997 663.5,557C 671.094,550.423 679.761,546.256 689.5,544.5 Z M 692.5,561.5 C 719.209,561.206 732.875,574.54 733.5,601.5C 732.631,629.576 718.297,642.409 690.5,640C 677.476,636.308 669.642,627.808 667,614.5C 662.441,595.923 666.941,580.09 680.5,567C 684.317,564.562 688.317,562.728 692.5,561.5 Z"/></g>
<g><path style="opacity:0.969" fill="#7d53e8" d="M 828.5,544.5 C 855.984,541.48 875.151,552.48 886,577.5C 886.953,580.432 887.453,583.432 887.5,586.5C 881.866,587.829 876.199,588.663 870.5,589C 864.691,568.252 851.024,559.252 829.5,562C 809.928,567.755 799.928,580.922 799.5,601.5C 799.458,621.274 808.791,634.107 827.5,640C 850.236,643.966 864.569,634.799 870.5,612.5C 876.185,613.504 881.852,614.671 887.5,616C 884.247,638.594 871.247,652.26 848.5,657C 831.546,659.51 815.88,656.177 801.5,647C 783.791,630.518 777.624,610.352 783,586.5C 789.423,562.907 804.589,548.907 828.5,544.5 Z"/></g>
<g><path style="opacity:0.974" fill="#7d53e8" d="M 958.5,544.5 C 1000.45,543.782 1020.45,564.448 1018.5,606.5C 989.833,606.5 961.167,606.5 932.5,606.5C 936.164,633.662 951.498,644.828 978.5,640C 988.815,637.02 995.982,630.52 1000,620.5C 1000.56,619.978 1001.23,619.645 1002,619.5C 1006.74,620.684 1011.41,622.017 1016,623.5C 1012.17,640.006 1002,650.839 985.5,656C 959.45,663.097 938.616,655.931 923,634.5C 911.701,612.14 911.701,589.807 923,567.5C 931.869,555.155 943.702,547.489 958.5,544.5 Z M 959.5,561.5 C 974.63,559.592 986.796,564.592 996,576.5C 998.409,580.892 999.909,585.558 1000.5,590.5C 978.167,590.5 955.833,590.5 933.5,590.5C 934.375,581.917 938.042,574.75 944.5,569C 949.35,566.007 954.35,563.507 959.5,561.5 Z"/></g>
</svg>
