<svg version="1.2" xmlns="http://www.w3.org/2000/svg" viewBox="0 0 1080 540" width="1080" height="540">
	<title>logo-svg</title>
	<style>
		.s0 { opacity: 1;fill: #7d53e8 } 
		.s1 { opacity: 1;fill: #7d54e7 } 
	</style>
	<g id="Layer">
		<path id="Layer" fill-rule="evenodd" class="s0" d="m136.5 149.5q65.6-1.1 82.5 62 2.3 10.4 3 21 1.4 43-1 86-9.8 69.8-80 72-61.7-0.7-78-60-2.2-9.9-3-20-1-40 0-80 1.7-39.2 30.5-65.5 21-14.2 46-15.5zm-24 34.5q-21.4 18.2-23.5 46.5-1 40.5 0 81 1.4 10.8 5 21 7 20 26.5 28.5 64.8 14.8 72.5-51.5 1-39 0-78-1.6-12.4-6-24-15.4-33.6-52.5-32-11.6 2.3-22 8.5z"/>
	</g>
	<g id="Layer">
		<path id="Layer" fill-rule="evenodd" class="s0" d="m159.5 208.5q5.5 1 10 4.5-9 19-18 38 17 12.4 7.5 31.5-6.2 8.2-16.5 9 1 17.5 1 35-4.5 0-9 0 0.2-18-1.5-36-20.4-11.7-10-33 7.4-9 19-10 8.8-19.5 17.5-39z"/>
	</g>
	<g id="Layer">
		<path id="Layer" fill-rule="evenodd" class="s1" d="m422.5 234.5q9 0 18 0 0 22 0 44 20.5 0 41 0 0 8 0 16-20.5 0-41 0-0.3 36 0.5 72 1.3 1.3 2.5 2.5 16.5 0.8 33 0.5 0 8 0 16-21.5 0.3-43-0.5-9.8-3.9-10.5-14.5-0.8-38-0.5-76-16.5 0-33 0 0-8 0-16 16.5 0 33 0 0-22 0-44z"/>
	</g>
	<g id="Layer">
		<path id="Layer" fill-rule="evenodd" class="s0" d="m291.5 234.5q8.9-0.5 17.5 1 0.8 21.5 0.5 43 20.5 0 41 0 0 8 0 16-20.5 0-41 0-0.3 36.5 0.5 73 0.8 0.8 1.5 1.5 17 0.8 34 0.5 0 8 0 16-21.5 0.3-43-0.5-6.4-1.8-9.5-7.5-2.2-41.4-1.5-83-17 0-34 0 0-8 0-16 17 0 34 0 0-22 0-44z"/>
	</g>
	<g id="Layer">
		<path id="Layer" fill-rule="evenodd" class="s0" d="m581.5 275.5q43.3-2 45 41.5-8.9 2.2-18 3.5-1.3-30.1-31-27.5-15.7 5.7-18.5 22.5-0.8 27-0.5 54 13.5 0 27 0 0 8 0 16-35 0-70 0 0-8 0-16 12.5 0 25 0 0-37.5 0-75-11 0-22 0 0-8 0-16 20 0 40 0-0.5 7.1 1 14 7.5-13 22-17z"/>
	</g>
	<g id="Layer">
		<path id="Layer" fill-rule="evenodd" class="s0" d="m689.5 275.5q28.1-3.2 43 20 1.5-8.4 1-17 9 0 18 0-0.3 44 0.5 88 0.7 1.8 2.5 2.5 4 0.7 8 0.5 0 8 0 16-9 0.2-18-0.5-11.4-4.9-12-17.5-15.3 25.6-45 20.5-35-8.5-39.5-44.5-4.9-31.5 15.5-55.5 11.4-9.9 26-12.5zm-9 22.5q-20.3 19.6-13.5 47.5 4 20 23.5 25.5 41.7 3.6 43-38.5-0.9-40.4-41-40-6.3 1.8-12 5.5z"/>
	</g>
	<g id="Layer">
		<path id="Layer" fill-rule="evenodd" class="s0" d="m828.5 275.5q41.2-4.5 57.5 33 1.4 4.4 1.5 9-8.5 2-17 2.5-8.7-31.1-41-27-29.4 8.6-30 39.5-0.1 29.7 28 38.5 34.1 5.9 43-27.5 8.5 1.5 17 3.5-4.9 33.9-39 41-25.4 3.8-47-10-26.6-24.7-18.5-60.5 9.6-35.4 45.5-42z"/>
	</g>
	<g id="Layer">
		<path id="Layer" fill-rule="evenodd" class="s0" d="m958.5 275.5q62.9-1.1 60 62-43 0-86 0 5.5 40.7 46 33.5 15.5-4.5 21.5-19.5 0.8-0.8 2-1 7.1 1.8 14 4-5.7 24.8-30.5 32.5-39.1 10.6-62.5-21.5-16.9-33.5 0-67 13.3-18.5 35.5-23zm-14 24.5q-9.7 8.6-11 21.5 33.5 0 67 0-0.9-7.4-4.5-14-13.8-17.9-36.5-15-7.7 3-15 7.5z"/>
	</g>
</svg>